<?xml version="1.0" encoding="UTF-8" standalone="no"?>
<!-- Created with Inkscape (http://www.inkscape.org/) -->

<svg
   xmlns:dc="http://purl.org/dc/elements/1.1/"
   xmlns:cc="http://creativecommons.org/ns#"
   xmlns:rdf="http://www.w3.org/1999/02/22-rdf-syntax-ns#"
   xmlns:svg="http://www.w3.org/2000/svg"
   xmlns="http://www.w3.org/2000/svg"
   xmlns:sodipodi="http://sodipodi.sourceforge.net/DTD/sodipodi-0.dtd"
   xmlns:inkscape="http://www.inkscape.org/namespaces/inkscape"
   width="100"
   height="100"
   viewBox="0 0 26.458333 26.458334"
   version="1.1"
   id="svg947"
   sodipodi:docname="File Explorer Favicon 1.svg"
   inkscape:version="0.92.2 (5c3e80d, 2017-08-06)">
  <defs
     id="defs941" />
  <sodipodi:namedview
     id="base"
     pagecolor="#ffffff"
     bordercolor="#666666"
     borderopacity="1.0"
     inkscape:pageopacity="0.0"
     inkscape:pageshadow="2"
     inkscape:zoom="2.8284271"
     inkscape:cx="90.085288"
     inkscape:cy="-6.4197683"
     inkscape:document-units="mm"
     inkscape:current-layer="layer1"
     showgrid="false"
     units="px"
     inkscape:window-width="1920"
     inkscape:window-height="1017"
     inkscape:window-x="-8"
     inkscape:window-y="-8"
     inkscape:window-maximized="1" />
  <metadata
     id="metadata944">
    <rdf:RDF>
      <cc:Work
         rdf:about="">
        <dc:format>image/svg+xml</dc:format>
        <dc:type
           rdf:resource="http://purl.org/dc/dcmitype/StillImage" />
        <dc:title></dc:title>
      </cc:Work>
    </rdf:RDF>
  </metadata>
  <g
     inkscape:label="Layer 1"
     inkscape:groupmode="layer"
     id="layer1"
     transform="translate(0,-270.54165)">
    <rect
       style="opacity:1;vector-effect:none;fill:none;fill-opacity:1;stroke:none;stroke-width:0.47442648;stroke-linecap:round;stroke-linejoin:round;stroke-miterlimit:4;stroke-dasharray:none;stroke-dashoffset:0;stroke-opacity:1;paint-order:markers fill stroke"
       id="rect1973-4-5"
       width="11.906199"
       height="11.906199"
       x="7.2366514"
       y="278.04422"
       inkscape:export-filename="D:\Seagate\Isaac\CALICODE\Iconography\File Explorer Favicon 1.png"
       inkscape:export-xdpi="106.67"
       inkscape:export-ydpi="106.67" />
    <path
       style="opacity:1;vector-effect:none;fill:#ffffff;fill-opacity:1;stroke:none;stroke-width:0.36899999;stroke-linecap:round;stroke-linejoin:round;stroke-miterlimit:4;stroke-dasharray:none;stroke-dashoffset:0;stroke-opacity:1;paint-order:markers fill stroke"
       d="m 11.999125,281.48377 a 1.058338,1.058338 0 0 1 1.05833,1.05833 0.52916233,0.52916233 0 0 0 0.52917,0.52917 h 1.85208 a 1.058338,1.058338 0 0 1 1.05834,1.05833 v 1.32292 a 1.058338,1.058338 0 0 1 -1.05834,1.05833 h -4.49791 a 1.058338,1.058338 0 0 1 -1.0583401,-1.05833 v -2.91042 a 1.058338,1.058338 0 0 1 1.0583401,-1.05833 z m 0,0.52917 h -1.05833 a 0.52916233,0.52916233 0 0 0 -0.52917,0.52916 v 2.91042 a 0.52916233,0.52916233 0 0 0 0.52917,0.52917 h 4.49791 a 0.52916233,0.52916233 0 0 0 0.52917,-0.52917 v -1.32292 a 0.52916233,0.52916233 0 0 0 -0.52917,-0.52916 h -1.85208 a 1.058338,1.058338 0 0 1 -1.05833,-1.05834 0.52916233,0.52916233 0 0 0 -0.52917,-0.52916 z"
       id="rect5829"
       inkscape:connector-curvature="0"
       inkscape:export-filename="D:\Seagate\Isaac\CALICODE\Iconography\File Explorer Favicon 1.png"
       inkscape:export-xdpi="106.67"
       inkscape:export-ydpi="106.67" />
  </g>
</svg>
