<?xml version="1.0" encoding="UTF-8"?>
<!DOCTYPE svg PUBLIC "-//W3C//DTD SVG 1.1//EN" "http://www.w3.org/Graphics/SVG/1.1/DTD/svg11.dtd">
<svg version="1.1" xmlns="http://www.w3.org/2000/svg" xmlns:xlink="http://www.w3.org/1999/xlink" x="0" y="0" width="500" height="500" viewBox="0, 0, 500, 500">
  <defs>
    <linearGradient id="Gradient_1" gradientUnits="userSpaceOnUse" x1="60.659" y1="112.889" x2="440.053" y2="384.523">
      <stop offset="0" stop-color="#3333CC"/>
      <stop offset="1" stop-color="#CC3399"/>
    </linearGradient>
  </defs>
  <g id="Layer_1">
    <path d="M497.988,285.05 C497.896,181.036 432.81,88.167 335.071,52.589 C334.191,52.293 333.309,52.002 332.425,51.716 C325.726,49.329 318.928,47.231 312.048,45.429 C310.163,44.987 308.272,44.567 306.377,44.169 C300.49,42.747 294.553,41.542 288.578,40.556 C285.587,40.136 282.588,39.769 279.583,39.458 C274.335,38.774 269.066,38.258 263.785,37.911 C259.32,37.624 254.848,37.457 250.373,37.412 C205.747,37.518 161.978,49.683 123.697,72.619 C123.017,73.003 122.339,73.39 121.663,73.78 L121.663,73.813 C47.91,118.672 2.843,198.702 2.724,285.026 C2.785,350.674 28.913,413.611 75.364,460 L133.689,401.676 C102.722,370.749 85.303,328.791 85.262,285.026 C85.346,220.156 123.415,161.349 182.566,134.717 L250.371,202.486 L318.174,134.683 C377.324,161.33 415.381,220.151 415.447,285.025 C415.406,328.79 397.988,370.748 367.02,401.674 L425.345,459.999 C471.797,413.61 497.926,350.673 497.988,285.025 z" fill="url(#Gradient_1)" id="path1135-4-4"/>
  </g>
</svg>
