<?xml version="1.0" encoding="UTF-8"?>
<!DOCTYPE svg PUBLIC "-//W3C//DTD SVG 1.1//EN" "http://www.w3.org/Graphics/SVG/1.1/DTD/svg11.dtd">
<svg version="1.1" xmlns="http://www.w3.org/2000/svg" xmlns:xlink="http://www.w3.org/1999/xlink" x="0" y="0" width="33.749" height="33.749" viewBox="0, 0, 33.749, 33.749">
  <g id="Layer_1">
    <g id="rect1221-7">
      <path d="M7.337,3.809 C4.817,3.844 2.793,5.897 2.792,8.417 L2.792,28.009 C2.791,30.556 4.855,32.622 7.402,32.622 L26.997,32.622 C29.544,32.622 31.608,30.556 31.607,28.009 L31.607,8.417 C31.606,5.889 29.57,3.833 27.042,3.809 L19.505,3.809 L19.505,6.114 L27.044,6.114 C28.299,6.138 29.303,7.162 29.304,8.417 L29.304,28.009 C29.305,28.621 29.062,29.208 28.63,29.641 C28.198,30.073 27.611,30.317 26.999,30.317 L7.405,30.317 C6.793,30.317 6.206,30.073 5.774,29.641 C5.341,29.208 5.099,28.621 5.099,28.009 L5.099,8.417 C5.1,7.165 6.099,6.143 7.35,6.114 L14.894,6.114 L14.894,3.809 z" fill="#000000"/>
      <path d="M7.337,3.809 C4.817,3.844 2.793,5.897 2.792,8.417 L2.792,28.009 C2.791,30.556 4.855,32.622 7.402,32.622 L26.997,32.622 C29.544,32.622 31.608,30.556 31.607,28.009 L31.607,8.417 C31.606,5.889 29.57,3.833 27.042,3.809 L19.505,3.809 L19.505,6.114 L27.044,6.114 C28.299,6.138 29.303,7.162 29.304,8.417 L29.304,28.009 C29.305,28.621 29.062,29.208 28.63,29.641 C28.198,30.073 27.611,30.317 26.999,30.317 L7.405,30.317 C6.793,30.317 6.206,30.073 5.774,29.641 C5.341,29.208 5.099,28.621 5.099,28.009 L5.099,8.417 C5.1,7.165 6.099,6.143 7.35,6.114 L14.894,6.114 L14.894,3.809 z" fill-opacity="0" stroke="#000000" stroke-width="1" stroke-linecap="round"/>
    </g>
    <path d="M15.661,0.679 L15.661,16.239 L12.607,16.239 L17.188,23.153 L21.769,16.237 L18.715,16.237 L18.715,0.679 z" fill="#000000" id="rect5057"/>
  </g>
</svg>
