<?xml version="1.0" encoding="UTF-8" standalone="no"?>
<!-- Created with Inkscape (http://www.inkscape.org/) -->

<svg
   xmlns:dc="http://purl.org/dc/elements/1.1/"
   xmlns:cc="http://creativecommons.org/ns#"
   xmlns:rdf="http://www.w3.org/1999/02/22-rdf-syntax-ns#"
   xmlns:svg="http://www.w3.org/2000/svg"
   xmlns="http://www.w3.org/2000/svg"
   xmlns:sodipodi="http://sodipodi.sourceforge.net/DTD/sodipodi-0.dtd"
   xmlns:inkscape="http://www.inkscape.org/namespaces/inkscape"
   width="100"
   height="100"
   viewBox="0 0 26.458333 26.458334"
   version="1.1"
   id="svg947"
   sodipodi:docname="Search Favicon 1.svg"
   inkscape:version="0.92.2 (5c3e80d, 2017-08-06)">
  <defs
     id="defs941" />
  <sodipodi:namedview
     id="base"
     pagecolor="#ffffff"
     bordercolor="#666666"
     borderopacity="1.0"
     inkscape:pageopacity="0.0"
     inkscape:pageshadow="2"
     inkscape:zoom="2.8284271"
     inkscape:cx="90.085288"
     inkscape:cy="-6.4197683"
     inkscape:document-units="mm"
     inkscape:current-layer="layer1"
     showgrid="false"
     units="px"
     inkscape:window-width="1920"
     inkscape:window-height="1017"
     inkscape:window-x="-8"
     inkscape:window-y="-8"
     inkscape:window-maximized="1" />
  <metadata
     id="metadata944">
    <rdf:RDF>
      <cc:Work
         rdf:about="">
        <dc:format>image/svg+xml</dc:format>
        <dc:type
           rdf:resource="http://purl.org/dc/dcmitype/StillImage" />
        <dc:title></dc:title>
      </cc:Work>
    </rdf:RDF>
  </metadata>
  <g
     inkscape:label="Layer 1"
     inkscape:groupmode="layer"
     id="layer1"
     transform="translate(0,-270.54165)">
    <rect
       style="opacity:1;vector-effect:none;fill:none;fill-opacity:1;stroke:none;stroke-width:0.47442648;stroke-linecap:round;stroke-linejoin:round;stroke-miterlimit:4;stroke-dasharray:none;stroke-dashoffset:0;stroke-opacity:1;paint-order:markers fill stroke"
       id="rect1973"
       width="11.906199"
       height="11.906199"
       x="7.9850059"
       y="278.23132"
       inkscape:export-filename="D:\Seagate\Isaac\CALICODE\Iconography\Search Favicon 1.png"
       inkscape:export-xdpi="106.67"
       inkscape:export-ydpi="106.67" />
    <path
       style="opacity:1;vector-effect:none;fill:#ffffff;fill-opacity:1;stroke:none;stroke-width:0.36899999;stroke-linecap:round;stroke-linejoin:round;stroke-miterlimit:4;stroke-dasharray:none;stroke-dashoffset:0;stroke-opacity:1;paint-order:markers fill stroke"
       d="m 15.128712,281.63322 a 2.6458332,2.6458332 0 0 0 -3.74177,0 2.6458332,2.6458332 0 0 0 0,3.74177 2.6458332,2.6458332 0 0 0 3.54337,0.17577 l 1.8822,1.88221 a 0.26458332,0.26458332 0 0 0 0.37418,0 0.26458332,0.26458332 0 0 0 0,-0.37418 l -1.88039,-1.88039 a 2.6458332,2.6458332 0 0 0 -0.17759,-3.54518 z m -0.37417,0.37417 a 2.1166665,2.1166665 0 0 1 0,2.99342 2.1166665,2.1166665 0 0 1 -2.99342,0 2.1166665,2.1166665 0 0 1 0,-2.99342 2.1166665,2.1166665 0 0 1 2.99342,0 z"
       id="path1952"
       inkscape:connector-curvature="0"
       inkscape:export-filename="D:\Seagate\Isaac\CALICODE\Iconography\Search Favicon 1.png"
       inkscape:export-xdpi="106.67"
       inkscape:export-ydpi="106.67" />
  </g>
</svg>
