<?xml version="1.0" encoding="UTF-8" standalone="no"?>
<!-- Created with Inkscape (http://www.inkscape.org/) -->

<svg
   xmlns:dc="http://purl.org/dc/elements/1.1/"
   xmlns:cc="http://creativecommons.org/ns#"
   xmlns:rdf="http://www.w3.org/1999/02/22-rdf-syntax-ns#"
   xmlns:svg="http://www.w3.org/2000/svg"
   xmlns="http://www.w3.org/2000/svg"
   xmlns:sodipodi="http://sodipodi.sourceforge.net/DTD/sodipodi-0.dtd"
   xmlns:inkscape="http://www.inkscape.org/namespaces/inkscape"
   width="100"
   height="100"
   viewBox="0 0 26.458333 26.458334"
   version="1.1"
   id="svg947"
   inkscape:version="0.92.2 (5c3e80d, 2017-08-06)"
   sodipodi:docname="Profile Page Favicon 1.svg">
  <defs
     id="defs941" />
  <sodipodi:namedview
     id="base"
     pagecolor="#ffffff"
     bordercolor="#666666"
     borderopacity="1.0"
     inkscape:pageopacity="0.0"
     inkscape:pageshadow="2"
     inkscape:zoom="4.8398437"
     inkscape:cx="58.814923"
     inkscape:cy="29.477553"
     inkscape:document-units="mm"
     inkscape:current-layer="layer1"
     showgrid="false"
     units="px"
     inkscape:window-width="1920"
     inkscape:window-height="1017"
     inkscape:window-x="-8"
     inkscape:window-y="-8"
     inkscape:window-maximized="1" />
  <metadata
     id="metadata944">
    <rdf:RDF>
      <cc:Work
         rdf:about="">
        <dc:format>image/svg+xml</dc:format>
        <dc:type
           rdf:resource="http://purl.org/dc/dcmitype/StillImage" />
        <dc:title></dc:title>
      </cc:Work>
    </rdf:RDF>
  </metadata>
  <g
     inkscape:label="Layer 1"
     inkscape:groupmode="layer"
     id="layer1"
     transform="translate(0,-270.54165)">
    <rect
       style="opacity:1;vector-effect:none;fill:none;fill-opacity:1;stroke:none;stroke-width:0.47442648;stroke-linecap:round;stroke-linejoin:round;stroke-miterlimit:4;stroke-dasharray:none;stroke-dashoffset:0;stroke-opacity:1;paint-order:markers fill stroke"
       id="rect1973-4-5-4"
       width="11.906199"
       height="11.906199"
       x="7.0031552"
       y="277.59863"
       inkscape:export-filename="D:\Seagate\Isaac\CALICODE\Iconography\Profile Page Favicon 1.png"
       inkscape:export-xdpi="106.67"
       inkscape:export-ydpi="106.67" />
    <path
       inkscape:connector-curvature="0"
       style="opacity:1;vector-effect:none;fill:#ffffff;fill-opacity:1;stroke:none;stroke-width:0.36899999;stroke-linecap:round;stroke-linejoin:round;stroke-miterlimit:4;stroke-dasharray:none;stroke-dashoffset:0;stroke-opacity:1;paint-order:markers fill stroke"
       d="m 12.956267,280.24416 a 3.3072914,3.3072914 0 0 0 -3.3072924,3.30729 3.3072914,3.3072914 0 0 0 3.3072924,3.3073 3.3072914,3.3072914 0 0 0 3.307292,-3.3073 3.3072914,3.3072914 0 0 0 -3.307292,-3.30729 z m 0,0.52917 a 2.778125,2.778125 0 0 1 2.778125,2.77812 2.778125,2.778125 0 0 1 -0.89244,2.03657 1.9843749,1.9843749 0 0 0 -1.050607,-1.18855 1.1906249,1.1906249 0 0 0 0.355547,-0.84802 1.1906249,1.1906249 0 0 0 -1.190625,-1.19062 1.1906249,1.1906249 0 0 0 -1.190625,1.19062 1.1906249,1.1906249 0 0 0 0.356579,0.84853 1.9843749,1.9843749 0 0 0 -1.049549,1.18856 2.778125,2.778125 0 0 1 -0.89453,-2.03709 2.778125,2.778125 0 0 1 2.778125,-2.77812 z"
       id="path5962"
       inkscape:export-filename="D:\Seagate\Isaac\CALICODE\Iconography\Profile Page Favicon 1.png"
       inkscape:export-xdpi="106.67"
       inkscape:export-ydpi="106.67" />
  </g>
</svg>
